<svg version="1.0" xmlns="http://www.w3.org/2000/svg" xmlns:xlink="http://www.w3.org/1999/xlink" x="0px" y="0px"
	 width="490px" height="100px" viewBox="0 0 490 100" enable-background="new 0 0 490 100">
<g fill="#E0251B">
	<polygon points="85.09,28.66 71.15,67.81 56.44,28.66 46.03,28.66 30.94,68.19 17,28.66 0,28.66 25.02,98.18
		35.91,98.18 51.09,58.55 65.89,98.18 76.97,98.18 102.28,28.66"/>
	<path d="M110.2,98.18h17.38V28.66H110.2V98.18z M111.06,3.26c-2.1,2.1-3.25,4.87-3.25,7.83
		c0,3.06,1.15,6.02,3.34,8.21c4.2,4.39,11.17,4.49,15.57,0.19l0.1-0.1c2.1-2.1,3.25-5.06,3.25-8.02c0-3.06-1.15-5.92-3.34-8.02
		c-4.2-4.39-11.17-4.49-15.57-0.19L111.06,3.26"/>
	<path d="M157.76,54.73c2.01-4.3,4.11-7.26,6.4-8.98c3.72-2.77,8.21-4.2,12.8-4.11c4.2-0.1,8.31,1.24,11.75,3.63
		c3.34,2.29,5.73,5.63,6.78,9.45H157.76z M212.96,65.14c0-11.46-3.44-20.72-10.22-27.79c-6.78-7.07-15.76-10.5-26.64-10.5
		s-18.91,3.53-25.69,10.5c-6.78,6.97-10.22,15.85-10.22,26.45c0,10.6,3.44,19,10.22,25.88c6.78,6.87,15.76,10.31,26.64,10.31
		c6.97,0,13.08-1.24,18.14-3.72c5.35-2.67,9.84-6.68,13.18-11.55l-14.71-6.87c-4.49,4.49-10.5,6.87-16.81,6.78
		c-5.44,0-9.84-1.43-13.37-4.3c-3.53-3.06-5.83-7.26-6.49-11.84h55.96V65.14z"/>
	<rect x="225.28" y="1.83" width="17.38" height="96.45"/>
	<path d="M304.73,48.62c3.63,3.72,5.35,8.59,5.35,14.71c0,6.11-1.72,11.17-5.35,14.99c-7.16,7.45-19,7.64-26.45,0.48
		c-0.19-0.19-0.38-0.38-0.57-0.57c-3.63-3.92-5.44-8.88-5.44-14.9c0-5.92,1.81-10.79,5.35-14.61c3.44-3.72,8.4-5.82,13.47-5.73
		C296.23,42.89,301.2,44.89,304.73,48.62 M309.32,36.3c-2.86-3.06-6.3-5.44-10.12-7.07c-3.63-1.62-7.64-2.39-11.65-2.39
		c-8.88-0.1-17.29,3.63-23.11,10.31c-6.3,6.88-9.45,15.66-9.45,26.36c0,10.41,3.25,19.1,9.84,26.07s14.23,10.41,23.21,10.41
		c3.82,0.1,7.54-0.67,11.08-2.1c3.82-1.72,7.26-4.11,10.22-7.07v7.35h17.48V28.66h-17.48V36.3L309.32,36.3z"/>
	<path d="M344.37,98.18h17.38V70.29c0-7.25,0.29-11.93,0.76-14.13c0.76-3.72,2.58-7.07,5.25-9.74
		c2.48-2.29,5.73-3.63,9.07-3.53c2.48-0.1,4.87,0.67,6.88,2.1c1.91,1.62,3.25,3.82,3.82,6.21c0.77,2.77,1.15,8.21,1.15,16.52v30.46
		h17.19V52.25c0-8.02-2.01-14.04-6.02-18.14c-4.58-4.77-10.89-7.35-17.48-7.26c-3.34,0-6.69,0.67-9.84,2.01
		c-3.25,1.24-6.78,3.63-10.79,6.97v-7.16h-17.38V98.18z"/>
	<path d="M467.94,48.62c3.63,3.72,5.35,8.59,5.35,14.71c0,6.11-1.72,11.17-5.35,14.99c-7.16,7.45-19,7.64-26.45,0.48
		c-0.19-0.19-0.38-0.38-0.57-0.57c-3.53-3.92-5.35-8.88-5.35-14.9c0-6.02,1.72-10.79,5.25-14.61c3.44-3.72,8.4-5.82,13.46-5.73
		C459.44,42.89,464.41,44.89,467.94,48.62 M472.52,36.3c-2.87-3.06-6.3-5.44-10.12-7.07c-3.63-1.62-7.64-2.39-11.65-2.39
		c-9.07,0-16.71,3.44-23.11,10.31c-6.4,6.88-9.45,15.66-9.45,26.36s3.25,19.1,9.84,26.07s14.23,10.41,23.21,10.41
		c3.82,0.1,7.54-0.67,11.08-2.1c3.82-1.72,7.26-4.11,10.22-7.07v7.35H490V1.83h-17.48V36.3z"/>
</g>
</svg>
